<mxfile host="Electron" agent="Mozilla/5.0 (Windows NT 10.0; Win64; x64) AppleWebKit/537.36 (KHTML, like Gecko) draw.io/27.0.9 Chrome/134.0.6998.205 Electron/35.4.0 Safari/537.36" version="27.0.9">
  <diagram name="Página-1" id="laSuz0cwaI2xkqtanKar">
    <mxGraphModel dx="946" dy="661" grid="1" gridSize="10" guides="1" tooltips="1" connect="1" arrows="1" fold="1" page="1" pageScale="1" pageWidth="827" pageHeight="1169" math="0" shadow="0">
      <root>
        <mxCell id="0" />
        <mxCell id="1" parent="0" />
        <mxCell id="74qUpLiCZOBuezDbrack-2" value="&lt;font style=&quot;font-size: 11px;&quot;&gt;Ejercicio 05: Editorial&lt;br&gt;Tenemos esta información sobre una cadena editorial:&lt;br&gt;• La editorial tiene varias sucursales, con su domicilio, teléfono y un código de sucursal.&lt;br&gt;• Cada sucursal tiene varios empleados, de los cuales tendremos sus datos personales, DNI y teléfono. &lt;br&gt;Un empleado trabaja en una única sucursal.&lt;br&gt;• En cada sucursal se publican varias revistas, de las que almacenaremos su título, número de registro, &lt;br&gt;periodicidad y tipo.&lt;br&gt;• La editorial tiene periodistas (que no trabajan en las sucursales) que pueden escribir artículos para &lt;br&gt;varias revistas. Almacenaremos los mismos datos que para los empleados, añadiendo su especialidad.&lt;br&gt;• Para cada revista, almacenaremos información de cada número, que incluirá la fecha, número de &lt;br&gt;páginas y el número de ejemplares vendidos.&lt;/font&gt;" style="text;html=1;align=left;verticalAlign=middle;whiteSpace=wrap;rounded=0;" parent="1" vertex="1">
          <mxGeometry x="220" y="130" width="550" height="170" as="geometry" />
        </mxCell>
        <mxCell id="74qUpLiCZOBuezDbrack-4" value="sucursal" style="whiteSpace=wrap;html=1;align=center;fillColor=#f0a30a;strokeColor=#BD7000;fontColor=#000000;" parent="1" vertex="1">
          <mxGeometry x="430" y="380" width="70" height="40" as="geometry" />
        </mxCell>
        <mxCell id="74qUpLiCZOBuezDbrack-5" value="empleado" style="whiteSpace=wrap;html=1;align=center;fillColor=#f0a30a;strokeColor=#BD7000;fontColor=#000000;" parent="1" vertex="1">
          <mxGeometry x="680" y="380" width="70" height="40" as="geometry" />
        </mxCell>
        <mxCell id="74qUpLiCZOBuezDbrack-6" value="revista" style="whiteSpace=wrap;html=1;align=center;fillColor=#f0a30a;strokeColor=#BD7000;fontColor=#000000;" parent="1" vertex="1">
          <mxGeometry x="690" y="450" width="60" height="40" as="geometry" />
        </mxCell>
        <mxCell id="74qUpLiCZOBuezDbrack-7" value="periodista" style="whiteSpace=wrap;html=1;align=center;fillColor=#f0a30a;strokeColor=#BD7000;fontColor=#000000;" parent="1" vertex="1">
          <mxGeometry x="430" y="500" width="70" height="40" as="geometry" />
        </mxCell>
        <mxCell id="74qUpLiCZOBuezDbrack-13" value="" style="endArrow=none;html=1;rounded=0;exitX=0.5;exitY=0;exitDx=0;exitDy=0;" parent="1" source="74qUpLiCZOBuezDbrack-4" target="74qUpLiCZOBuezDbrack-14" edge="1">
          <mxGeometry relative="1" as="geometry">
            <mxPoint x="440" y="325" as="sourcePoint" />
            <mxPoint x="500" y="325" as="targetPoint" />
          </mxGeometry>
        </mxCell>
        <mxCell id="74qUpLiCZOBuezDbrack-14" value="&lt;u&gt;codSucursal&lt;/u&gt;" style="ellipse;whiteSpace=wrap;html=1;align=center;" parent="1" vertex="1">
          <mxGeometry x="422.5" y="320" width="85" height="30" as="geometry" />
        </mxCell>
        <mxCell id="74qUpLiCZOBuezDbrack-15" value="" style="endArrow=none;html=1;rounded=0;exitX=0.75;exitY=0;exitDx=0;exitDy=0;" parent="1" source="74qUpLiCZOBuezDbrack-4" target="74qUpLiCZOBuezDbrack-16" edge="1">
          <mxGeometry relative="1" as="geometry">
            <mxPoint x="508" y="335" as="sourcePoint" />
            <mxPoint x="568" y="335" as="targetPoint" />
          </mxGeometry>
        </mxCell>
        <mxCell id="74qUpLiCZOBuezDbrack-16" value="telf" style="ellipse;whiteSpace=wrap;html=1;align=center;" parent="1" vertex="1">
          <mxGeometry x="510" y="340" width="27" height="30" as="geometry" />
        </mxCell>
        <mxCell id="74qUpLiCZOBuezDbrack-17" value="" style="endArrow=none;html=1;rounded=0;exitX=0.25;exitY=0;exitDx=0;exitDy=0;" parent="1" source="74qUpLiCZOBuezDbrack-4" target="74qUpLiCZOBuezDbrack-18" edge="1">
          <mxGeometry relative="1" as="geometry">
            <mxPoint x="320" y="345" as="sourcePoint" />
            <mxPoint x="380" y="345" as="targetPoint" />
          </mxGeometry>
        </mxCell>
        <mxCell id="74qUpLiCZOBuezDbrack-18" value="domicilio" style="ellipse;whiteSpace=wrap;html=1;align=center;" parent="1" vertex="1">
          <mxGeometry x="367.5" y="340" width="55" height="30" as="geometry" />
        </mxCell>
        <mxCell id="74qUpLiCZOBuezDbrack-19" value="trabaja" style="shape=rhombus;perimeter=rhombusPerimeter;whiteSpace=wrap;html=1;align=center;fillColor=#76608a;fontColor=#ffffff;strokeColor=#432D57;" parent="1" vertex="1">
          <mxGeometry x="537" y="380" width="90" height="40" as="geometry" />
        </mxCell>
        <mxCell id="74qUpLiCZOBuezDbrack-20" value="" style="endArrow=none;html=1;rounded=0;exitX=0;exitY=0.5;exitDx=0;exitDy=0;entryX=1;entryY=0.5;entryDx=0;entryDy=0;" parent="1" source="74qUpLiCZOBuezDbrack-19" target="74qUpLiCZOBuezDbrack-4" edge="1">
          <mxGeometry relative="1" as="geometry">
            <mxPoint x="555" y="370" as="sourcePoint" />
            <mxPoint x="508" y="400" as="targetPoint" />
          </mxGeometry>
        </mxCell>
        <mxCell id="74qUpLiCZOBuezDbrack-21" value="(1,1)" style="resizable=0;html=1;whiteSpace=wrap;align=right;verticalAlign=bottom;" parent="74qUpLiCZOBuezDbrack-20" connectable="0" vertex="1">
          <mxGeometry x="1" relative="1" as="geometry">
            <mxPoint x="34" as="offset" />
          </mxGeometry>
        </mxCell>
        <mxCell id="74qUpLiCZOBuezDbrack-22" value="" style="endArrow=none;html=1;rounded=0;exitX=1;exitY=0.5;exitDx=0;exitDy=0;entryX=0;entryY=0.5;entryDx=0;entryDy=0;" parent="1" source="74qUpLiCZOBuezDbrack-19" target="74qUpLiCZOBuezDbrack-5" edge="1">
          <mxGeometry relative="1" as="geometry">
            <mxPoint x="555" y="370" as="sourcePoint" />
            <mxPoint x="680" y="400" as="targetPoint" />
          </mxGeometry>
        </mxCell>
        <mxCell id="74qUpLiCZOBuezDbrack-23" value="(1,N)" style="resizable=0;html=1;whiteSpace=wrap;align=right;verticalAlign=bottom;" parent="74qUpLiCZOBuezDbrack-22" connectable="0" vertex="1">
          <mxGeometry x="1" relative="1" as="geometry">
            <mxPoint as="offset" />
          </mxGeometry>
        </mxCell>
        <mxCell id="74qUpLiCZOBuezDbrack-25" value="" style="endArrow=none;html=1;rounded=0;exitX=0.5;exitY=0;exitDx=0;exitDy=0;" parent="1" source="74qUpLiCZOBuezDbrack-5" target="74qUpLiCZOBuezDbrack-26" edge="1">
          <mxGeometry relative="1" as="geometry">
            <mxPoint x="680" y="335" as="sourcePoint" />
            <mxPoint x="740" y="335" as="targetPoint" />
          </mxGeometry>
        </mxCell>
        <mxCell id="74qUpLiCZOBuezDbrack-26" value="&lt;u&gt;DNI&lt;/u&gt;" style="ellipse;whiteSpace=wrap;html=1;align=center;" parent="1" vertex="1">
          <mxGeometry x="697.5" y="330" width="35" height="30" as="geometry" />
        </mxCell>
        <mxCell id="74qUpLiCZOBuezDbrack-27" value="" style="endArrow=none;html=1;rounded=0;exitX=0.75;exitY=0;exitDx=0;exitDy=0;" parent="1" source="74qUpLiCZOBuezDbrack-5" target="74qUpLiCZOBuezDbrack-28" edge="1">
          <mxGeometry relative="1" as="geometry">
            <mxPoint x="745" y="375" as="sourcePoint" />
            <mxPoint x="805" y="375" as="targetPoint" />
          </mxGeometry>
        </mxCell>
        <mxCell id="74qUpLiCZOBuezDbrack-28" value="tlf" style="ellipse;whiteSpace=wrap;html=1;align=center;" parent="1" vertex="1">
          <mxGeometry x="750" y="330" width="30" height="30" as="geometry" />
        </mxCell>
        <mxCell id="74qUpLiCZOBuezDbrack-29" value="" style="endArrow=none;html=1;rounded=0;exitX=0.25;exitY=0;exitDx=0;exitDy=0;" parent="1" source="74qUpLiCZOBuezDbrack-5" target="74qUpLiCZOBuezDbrack-30" edge="1">
          <mxGeometry relative="1" as="geometry">
            <mxPoint x="610" y="315" as="sourcePoint" />
            <mxPoint x="670" y="315" as="targetPoint" />
          </mxGeometry>
        </mxCell>
        <mxCell id="74qUpLiCZOBuezDbrack-30" value="datosPersonales" style="ellipse;whiteSpace=wrap;html=1;align=center;" parent="1" vertex="1">
          <mxGeometry x="575" y="330" width="105" height="30" as="geometry" />
        </mxCell>
        <mxCell id="74qUpLiCZOBuezDbrack-31" value="publica" style="shape=rhombus;perimeter=rhombusPerimeter;whiteSpace=wrap;html=1;align=center;fillColor=#76608a;fontColor=#ffffff;strokeColor=#432D57;" parent="1" vertex="1">
          <mxGeometry x="537" y="450" width="90" height="40" as="geometry" />
        </mxCell>
        <mxCell id="74qUpLiCZOBuezDbrack-32" value="" style="endArrow=none;html=1;rounded=0;exitX=0;exitY=0.5;exitDx=0;exitDy=0;entryX=0.5;entryY=1;entryDx=0;entryDy=0;" parent="1" source="74qUpLiCZOBuezDbrack-31" target="74qUpLiCZOBuezDbrack-4" edge="1">
          <mxGeometry relative="1" as="geometry">
            <mxPoint x="519" y="440" as="sourcePoint" />
            <mxPoint x="472" y="470" as="targetPoint" />
            <Array as="points">
              <mxPoint x="465" y="470" />
            </Array>
          </mxGeometry>
        </mxCell>
        <mxCell id="74qUpLiCZOBuezDbrack-33" value="(1,1)" style="resizable=0;html=1;whiteSpace=wrap;align=right;verticalAlign=bottom;" parent="74qUpLiCZOBuezDbrack-32" connectable="0" vertex="1">
          <mxGeometry x="1" relative="1" as="geometry">
            <mxPoint x="30" y="20" as="offset" />
          </mxGeometry>
        </mxCell>
        <mxCell id="74qUpLiCZOBuezDbrack-34" value="" style="endArrow=none;html=1;rounded=0;exitX=1;exitY=0.5;exitDx=0;exitDy=0;entryX=0;entryY=0.5;entryDx=0;entryDy=0;" parent="1" source="74qUpLiCZOBuezDbrack-31" target="74qUpLiCZOBuezDbrack-6" edge="1">
          <mxGeometry relative="1" as="geometry">
            <mxPoint x="519" y="440" as="sourcePoint" />
            <mxPoint x="692" y="470" as="targetPoint" />
          </mxGeometry>
        </mxCell>
        <mxCell id="74qUpLiCZOBuezDbrack-35" value="(1,M)" style="resizable=0;html=1;whiteSpace=wrap;align=right;verticalAlign=bottom;" parent="74qUpLiCZOBuezDbrack-34" connectable="0" vertex="1">
          <mxGeometry x="1" relative="1" as="geometry">
            <mxPoint as="offset" />
          </mxGeometry>
        </mxCell>
        <mxCell id="74qUpLiCZOBuezDbrack-36" value="" style="endArrow=none;html=1;rounded=0;exitX=1;exitY=0.5;exitDx=0;exitDy=0;" parent="1" source="74qUpLiCZOBuezDbrack-6" target="74qUpLiCZOBuezDbrack-37" edge="1">
          <mxGeometry relative="1" as="geometry">
            <mxPoint x="770" y="475" as="sourcePoint" />
            <mxPoint x="830" y="475" as="targetPoint" />
          </mxGeometry>
        </mxCell>
        <mxCell id="74qUpLiCZOBuezDbrack-37" value="&lt;u&gt;nRegistro&lt;/u&gt;" style="ellipse;whiteSpace=wrap;html=1;align=center;" parent="1" vertex="1">
          <mxGeometry x="770" y="420" width="65" height="30" as="geometry" />
        </mxCell>
        <mxCell id="74qUpLiCZOBuezDbrack-38" value="" style="endArrow=none;html=1;rounded=0;exitX=1;exitY=0;exitDx=0;exitDy=0;" parent="1" source="74qUpLiCZOBuezDbrack-6" target="74qUpLiCZOBuezDbrack-39" edge="1">
          <mxGeometry relative="1" as="geometry">
            <mxPoint x="750" y="435" as="sourcePoint" />
            <mxPoint x="810" y="435" as="targetPoint" />
          </mxGeometry>
        </mxCell>
        <mxCell id="74qUpLiCZOBuezDbrack-39" value="titulo" style="ellipse;whiteSpace=wrap;html=1;align=center;" parent="1" vertex="1">
          <mxGeometry x="780" y="395" width="45" height="20" as="geometry" />
        </mxCell>
        <mxCell id="74qUpLiCZOBuezDbrack-40" value="" style="endArrow=none;html=1;rounded=0;exitX=1;exitY=1;exitDx=0;exitDy=0;" parent="1" source="74qUpLiCZOBuezDbrack-6" target="74qUpLiCZOBuezDbrack-41" edge="1">
          <mxGeometry relative="1" as="geometry">
            <mxPoint x="745" y="505" as="sourcePoint" />
            <mxPoint x="805" y="505" as="targetPoint" />
          </mxGeometry>
        </mxCell>
        <mxCell id="74qUpLiCZOBuezDbrack-41" value="periodicidad" style="ellipse;whiteSpace=wrap;html=1;align=center;" parent="1" vertex="1">
          <mxGeometry x="762.5" y="524" width="80" height="20" as="geometry" />
        </mxCell>
        <mxCell id="74qUpLiCZOBuezDbrack-42" value="" style="endArrow=none;html=1;rounded=0;exitX=0.5;exitY=1;exitDx=0;exitDy=0;" parent="1" source="74qUpLiCZOBuezDbrack-6" target="74qUpLiCZOBuezDbrack-43" edge="1">
          <mxGeometry relative="1" as="geometry">
            <mxPoint x="750" y="525" as="sourcePoint" />
            <mxPoint x="810" y="525" as="targetPoint" />
            <Array as="points">
              <mxPoint x="740" y="540" />
            </Array>
          </mxGeometry>
        </mxCell>
        <mxCell id="74qUpLiCZOBuezDbrack-43" value="tipo" style="ellipse;whiteSpace=wrap;html=1;align=center;" parent="1" vertex="1">
          <mxGeometry x="780" y="554" width="30" height="20" as="geometry" />
        </mxCell>
        <mxCell id="74qUpLiCZOBuezDbrack-49" value="escribe" style="shape=rhombus;perimeter=rhombusPerimeter;whiteSpace=wrap;html=1;align=center;fillColor=#76608a;fontColor=#ffffff;strokeColor=#432D57;" parent="1" vertex="1">
          <mxGeometry x="537" y="500" width="90" height="40" as="geometry" />
        </mxCell>
        <mxCell id="74qUpLiCZOBuezDbrack-50" value="" style="endArrow=none;html=1;rounded=0;exitX=0;exitY=0.5;exitDx=0;exitDy=0;entryX=1;entryY=0.5;entryDx=0;entryDy=0;" parent="1" source="74qUpLiCZOBuezDbrack-49" target="74qUpLiCZOBuezDbrack-7" edge="1">
          <mxGeometry relative="1" as="geometry">
            <mxPoint x="547" y="500" as="sourcePoint" />
            <mxPoint x="500" y="530" as="targetPoint" />
          </mxGeometry>
        </mxCell>
        <mxCell id="74qUpLiCZOBuezDbrack-51" value="(1,N)" style="resizable=0;html=1;whiteSpace=wrap;align=right;verticalAlign=bottom;" parent="74qUpLiCZOBuezDbrack-50" connectable="0" vertex="1">
          <mxGeometry x="1" relative="1" as="geometry">
            <mxPoint x="34" as="offset" />
          </mxGeometry>
        </mxCell>
        <mxCell id="74qUpLiCZOBuezDbrack-52" value="" style="endArrow=none;html=1;rounded=0;exitX=1;exitY=0.5;exitDx=0;exitDy=0;entryX=0.25;entryY=1;entryDx=0;entryDy=0;" parent="1" source="74qUpLiCZOBuezDbrack-49" target="74qUpLiCZOBuezDbrack-6" edge="1">
          <mxGeometry relative="1" as="geometry">
            <mxPoint x="547" y="500" as="sourcePoint" />
            <mxPoint x="720" y="530" as="targetPoint" />
            <Array as="points">
              <mxPoint x="705" y="520" />
            </Array>
          </mxGeometry>
        </mxCell>
        <mxCell id="74qUpLiCZOBuezDbrack-53" value="(1,M)" style="resizable=0;html=1;whiteSpace=wrap;align=right;verticalAlign=bottom;" parent="74qUpLiCZOBuezDbrack-52" connectable="0" vertex="1">
          <mxGeometry x="1" relative="1" as="geometry">
            <mxPoint y="20" as="offset" />
          </mxGeometry>
        </mxCell>
        <mxCell id="74qUpLiCZOBuezDbrack-54" value="" style="endArrow=none;html=1;rounded=0;exitX=0.5;exitY=1;exitDx=0;exitDy=0;" parent="1" source="74qUpLiCZOBuezDbrack-7" target="74qUpLiCZOBuezDbrack-55" edge="1">
          <mxGeometry relative="1" as="geometry">
            <mxPoint x="423" y="600" as="sourcePoint" />
            <mxPoint x="483" y="600" as="targetPoint" />
          </mxGeometry>
        </mxCell>
        <mxCell id="74qUpLiCZOBuezDbrack-55" value="&lt;u&gt;DNI&lt;/u&gt;" style="ellipse;whiteSpace=wrap;html=1;align=center;" parent="1" vertex="1">
          <mxGeometry x="449" y="572" width="32" height="25" as="geometry" />
        </mxCell>
        <mxCell id="74qUpLiCZOBuezDbrack-56" value="" style="endArrow=none;html=1;rounded=0;exitX=0.75;exitY=1;exitDx=0;exitDy=0;" parent="1" source="74qUpLiCZOBuezDbrack-7" target="74qUpLiCZOBuezDbrack-57" edge="1">
          <mxGeometry relative="1" as="geometry">
            <mxPoint x="510" y="582" as="sourcePoint" />
            <mxPoint x="570" y="582" as="targetPoint" />
          </mxGeometry>
        </mxCell>
        <mxCell id="74qUpLiCZOBuezDbrack-57" value="especialidad" style="ellipse;whiteSpace=wrap;html=1;align=center;" parent="1" vertex="1">
          <mxGeometry x="490" y="574" width="85" height="23" as="geometry" />
        </mxCell>
        <mxCell id="74qUpLiCZOBuezDbrack-58" value="" style="endArrow=none;html=1;rounded=0;exitX=0.25;exitY=1;exitDx=0;exitDy=0;" parent="1" source="74qUpLiCZOBuezDbrack-7" target="74qUpLiCZOBuezDbrack-59" edge="1">
          <mxGeometry relative="1" as="geometry">
            <mxPoint x="338" y="586" as="sourcePoint" />
            <mxPoint x="398" y="586" as="targetPoint" />
          </mxGeometry>
        </mxCell>
        <mxCell id="74qUpLiCZOBuezDbrack-59" value="tlf" style="ellipse;whiteSpace=wrap;html=1;align=center;" parent="1" vertex="1">
          <mxGeometry x="403" y="570" width="27" height="29" as="geometry" />
        </mxCell>
        <mxCell id="74qUpLiCZOBuezDbrack-60" value="" style="endArrow=none;html=1;rounded=0;exitX=0;exitY=1;exitDx=0;exitDy=0;" parent="1" source="74qUpLiCZOBuezDbrack-7" target="74qUpLiCZOBuezDbrack-61" edge="1">
          <mxGeometry relative="1" as="geometry">
            <mxPoint x="290" y="589" as="sourcePoint" />
            <mxPoint x="350" y="589" as="targetPoint" />
          </mxGeometry>
        </mxCell>
        <mxCell id="74qUpLiCZOBuezDbrack-61" value="datosPersonales" style="ellipse;whiteSpace=wrap;html=1;align=center;" parent="1" vertex="1">
          <mxGeometry x="290" y="574" width="102.5" height="23" as="geometry" />
        </mxCell>
        <mxCell id="wvU3TJChJt6xK5moYX4i-8" style="rounded=0;orthogonalLoop=1;jettySize=auto;html=1;exitX=0.5;exitY=1;exitDx=0;exitDy=0;entryX=0.25;entryY=0;entryDx=0;entryDy=0;strokeColor=default;align=center;verticalAlign=middle;fontFamily=Helvetica;fontSize=11;fontColor=default;labelBackgroundColor=default;edgeStyle=none;startFill=0;endArrow=none;" edge="1" parent="1" source="74qUpLiCZOBuezDbrack-63" target="wvU3TJChJt6xK5moYX4i-1">
          <mxGeometry relative="1" as="geometry" />
        </mxCell>
        <mxCell id="74qUpLiCZOBuezDbrack-63" value="fecha" style="ellipse;whiteSpace=wrap;html=1;align=center;" parent="1" vertex="1">
          <mxGeometry x="998" y="380" width="42" height="23" as="geometry" />
        </mxCell>
        <mxCell id="wvU3TJChJt6xK5moYX4i-9" style="rounded=0;orthogonalLoop=1;jettySize=auto;html=1;exitX=0;exitY=1;exitDx=0;exitDy=0;entryX=0.75;entryY=0;entryDx=0;entryDy=0;strokeColor=default;align=center;verticalAlign=middle;fontFamily=Helvetica;fontSize=11;fontColor=default;labelBackgroundColor=default;edgeStyle=none;startFill=0;endArrow=none;" edge="1" parent="1" source="74qUpLiCZOBuezDbrack-67" target="wvU3TJChJt6xK5moYX4i-1">
          <mxGeometry relative="1" as="geometry" />
        </mxCell>
        <mxCell id="74qUpLiCZOBuezDbrack-67" value="paginas" style="ellipse;whiteSpace=wrap;html=1;align=center;" parent="1" vertex="1">
          <mxGeometry x="1060" y="396" width="60" height="18" as="geometry" />
        </mxCell>
        <mxCell id="wvU3TJChJt6xK5moYX4i-10" style="edgeStyle=none;shape=connector;rounded=0;orthogonalLoop=1;jettySize=auto;html=1;exitX=0;exitY=1;exitDx=0;exitDy=0;entryX=1;entryY=0;entryDx=0;entryDy=0;strokeColor=default;align=center;verticalAlign=middle;fontFamily=Helvetica;fontSize=11;fontColor=default;labelBackgroundColor=default;endArrow=none;startFill=0;" edge="1" parent="1" source="74qUpLiCZOBuezDbrack-69" target="wvU3TJChJt6xK5moYX4i-1">
          <mxGeometry relative="1" as="geometry" />
        </mxCell>
        <mxCell id="74qUpLiCZOBuezDbrack-69" value="ventas" style="ellipse;whiteSpace=wrap;html=1;align=center;" parent="1" vertex="1">
          <mxGeometry x="1090" y="425" width="50" height="25" as="geometry" />
        </mxCell>
        <mxCell id="wvU3TJChJt6xK5moYX4i-1" value="numeroRevista" style="whiteSpace=wrap;html=1;align=center;fillColor=#f0a30a;strokeColor=#BD7000;fontColor=#000000;shape=ext;margin=3;double=1;" vertex="1" parent="1">
          <mxGeometry x="950" y="450" width="100" height="40" as="geometry" />
        </mxCell>
        <mxCell id="wvU3TJChJt6xK5moYX4i-3" value="incluye" style="shape=rhombus;perimeter=rhombusPerimeter;whiteSpace=wrap;html=1;align=center;fillColor=#76608a;fontColor=#ffffff;strokeColor=#432D57;" vertex="1" parent="1">
          <mxGeometry x="820" y="450" width="90" height="40" as="geometry" />
        </mxCell>
        <mxCell id="wvU3TJChJt6xK5moYX4i-4" value="" style="endArrow=none;html=1;rounded=0;exitX=0;exitY=0.5;exitDx=0;exitDy=0;entryX=1;entryY=0.5;entryDx=0;entryDy=0;" edge="1" source="wvU3TJChJt6xK5moYX4i-3" parent="1" target="74qUpLiCZOBuezDbrack-6">
          <mxGeometry relative="1" as="geometry">
            <mxPoint x="827" y="450" as="sourcePoint" />
            <mxPoint x="780" y="480" as="targetPoint" />
          </mxGeometry>
        </mxCell>
        <mxCell id="wvU3TJChJt6xK5moYX4i-5" value="(1,1)" style="resizable=0;html=1;whiteSpace=wrap;align=right;verticalAlign=bottom;" connectable="0" vertex="1" parent="wvU3TJChJt6xK5moYX4i-4">
          <mxGeometry x="1" relative="1" as="geometry">
            <mxPoint x="34" as="offset" />
          </mxGeometry>
        </mxCell>
        <mxCell id="wvU3TJChJt6xK5moYX4i-6" value="" style="endArrow=none;html=1;rounded=0;exitX=1;exitY=0.5;exitDx=0;exitDy=0;entryX=0;entryY=0.5;entryDx=0;entryDy=0;" edge="1" source="wvU3TJChJt6xK5moYX4i-3" parent="1" target="wvU3TJChJt6xK5moYX4i-1">
          <mxGeometry relative="1" as="geometry">
            <mxPoint x="827" y="450" as="sourcePoint" />
            <mxPoint x="1000" y="480" as="targetPoint" />
          </mxGeometry>
        </mxCell>
        <mxCell id="wvU3TJChJt6xK5moYX4i-7" value="(1,N)" style="resizable=0;html=1;whiteSpace=wrap;align=right;verticalAlign=bottom;" connectable="0" vertex="1" parent="wvU3TJChJt6xK5moYX4i-6">
          <mxGeometry x="1" relative="1" as="geometry">
            <mxPoint as="offset" />
          </mxGeometry>
        </mxCell>
        <mxCell id="wvU3TJChJt6xK5moYX4i-11" value="" style="endArrow=none;html=1;rounded=0;strokeColor=default;align=center;verticalAlign=middle;fontFamily=Helvetica;fontSize=11;fontColor=default;labelBackgroundColor=default;" edge="1" target="wvU3TJChJt6xK5moYX4i-12" parent="1" source="wvU3TJChJt6xK5moYX4i-1">
          <mxGeometry relative="1" as="geometry">
            <mxPoint x="1055" y="475" as="sourcePoint" />
            <mxPoint x="1115" y="475" as="targetPoint" />
          </mxGeometry>
        </mxCell>
        <mxCell id="wvU3TJChJt6xK5moYX4i-12" value="&lt;u&gt;numero&lt;/u&gt;" style="ellipse;whiteSpace=wrap;html=1;align=center;fontFamily=Helvetica;fontSize=11;fontColor=default;labelBackgroundColor=default;" vertex="1" parent="1">
          <mxGeometry x="1090" y="460" width="50" height="30" as="geometry" />
        </mxCell>
      </root>
    </mxGraphModel>
  </diagram>
</mxfile>
